<svg height="512pt" viewBox="-17 0 512 512.001" width="512pt" xmlns="http://www.w3.org/2000/svg"><path d="m468.742188 148.367188c-.8125-.644532-1.683594-1.234376-2.582032-1.785157v-57.257812c0-4.585938-2.097656-9.039063-5.613281-11.910157-3.058594-2.496093-6.949219-3.492187-10.699219-2.726562l-82.941406 17.300781c-8.070312 1.648438-13.28125 7.386719-13.28125 14.613281v71.289063c-5.492188-.703125-11.566406-.359375-17.902344 1.101563v.003906c-.699218.160156-1.394531.335937-2.082031.519531v-147.921875c0-17.421875-14.175781-31.59375-31.59375-31.59375h-270.453125c-17.421875 0-31.59375 14.171875-31.59375 31.59375v448.8125c0 17.421875 14.171875 31.59375 31.59375 31.59375h270.453125c17.417969 0 31.59375-14.171875 31.59375-31.59375v-241.339844c1.808594-.238281 3.640625-.558594 5.5-.988281 21.570313-5.019531 38.464844-21.308594 38.464844-37.089844 0-6.660156-2.933594-12.660156-8.257813-16.894531-.1875-.148438-.386718-.28125-.582031-.425781v-76.453125c.25-.125.644531-.28125 1.199219-.394532l81.054687-16.90625v52.058594c-4.957031-.386718-10.328125.035156-15.902343 1.332032-21.550782 4.992187-38.433594 21.285156-38.433594 37.089843 0 6.667969 2.9375 12.671875 8.273437 16.90625 5.429688 4.3125 12.84375 6.542969 21.238281 6.542969 3.933594 0 8.082032-.492188 12.34375-1.484375 21.574219-4.984375 38.46875-21.277344 38.46875-37.089844.003907-6.667969-2.933593-12.667969-8.265624-16.902343zm-166.695313 348.492187h-270.453125c-9.070312 0-16.453125-7.382813-16.453125-16.453125v-15.625h136.621094c4.183593 0 7.574219-3.390625 7.574219-7.570312 0-4.183594-3.390626-7.574219-7.574219-7.574219h-136.621094v-381.410157h136.621094c4.183593 0 7.574219-3.386718 7.574219-7.570312 0-4.179688-3.390626-7.570312-7.574219-7.570312h-136.621094v-21.492188c0-9.070312 7.382813-16.449219 16.453125-16.449219h270.453125c9.070313 0 16.449219 7.378907 16.449219 16.449219v21.492188h-132.144532c-4.179687 0-7.570312 3.390624-7.570312 7.570312 0 4.183594 3.390625 7.570312 7.570312 7.570312h132.148438v117.652344c-12.679688 7.492188-21.21875 18.96875-21.21875 30.210938 0 6.660156 2.933594 12.664062 8.257812 16.898437 3.558594 2.824219 7.976563 4.742188 12.957032 5.742188v210.90625h-134.351563c-4.183593 0-7.570312 3.390625-7.570312 7.574219 0 4.179687 3.386719 7.570312 7.570312 7.570312h134.355469v15.625c0 9.070312-7.382812 16.453125-16.453125 16.453125zm33.671875-273.53125c-3.582031.828125-6.78125 1.125-9.578125 1.054687-.023437 0-.046875-.003906-.070313-.003906-.011718 0-.023437 0-.03125.003906-5.171874-.144531-8.941406-1.554687-11.074218-3.25-1.738282-1.378906-2.542969-2.984374-2.542969-5.046874 0-5.84375 6.421875-13.679688 16.484375-18.675782.308594-.125.609375-.269531.898438-.433594 2.855468-1.339843 5.984374-2.453124 9.332031-3.230468 8.34375-1.925782 14.644531-1.007813 18.492187.804687.027344.015625.054688.023438.082032.039063.863281.414062 1.605468.875 2.210937 1.355468 1.734375 1.378907 2.539063 2.980469 2.539063 5.042969.003906 7.621094-10.984376 18.671875-26.742188 22.339844zm99.398438-35.71875c-10.269532 2.394531-17.449219.449219-20.746094-2.167969-1.734375-1.378906-2.542969-2.980468-2.542969-5.046875 0-7.640625 10.96875-18.695312 26.714844-22.339843h.007812c3.277344-.761719 6.242188-1.085938 8.867188-1.085938 5.609375 0 9.664062 1.472656 11.910156 3.257812 1.734375 1.375 2.542969 2.976563 2.542969 5.042969-.003906 7.640625-10.984375 18.695313-26.753906 22.339844zm0 0"/><path d="m69.074219 361.257812c-14.234375 0-25.816407 11.566407-25.816407 25.785157v16.117187c0 14.21875 11.582032 25.785156 25.816407 25.785156 14.21875 0 25.785156-11.566406 25.785156-25.785156v-16.117187c0-14.21875-11.566406-25.785157-25.785156-25.785157zm10.640625 41.902344c0 5.867188-4.773438 10.640625-10.640625 10.640625-5.886719 0-10.675781-4.773437-10.675781-10.640625v-16.117187c0-5.867188 4.789062-10.644531 10.675781-10.644531 5.867187 0 10.640625 4.777343 10.640625 10.644531zm0 0"/><path d="m135.503906 334.289062c-14.234375 0-25.816406 11.566407-25.816406 25.785157v43.085937c0 14.21875 11.582031 25.785156 25.816406 25.785156 14.21875 0 25.785156-11.566406 25.785156-25.785156v-43.085937c0-14.21875-11.566406-25.785157-25.785156-25.785157zm10.644532 68.871094c0 5.867188-4.777344 10.640625-10.644532 10.640625-5.882812 0-10.671875-4.773437-10.671875-10.640625v-43.085937c0-5.867188 4.789063-10.644531 10.671875-10.644531 5.867188 0 10.644532 4.777343 10.644532 10.644531zm0 0"/><path d="m201.90625 428.945312c14.230469 0 25.8125-11.566406 25.8125-25.785156v-16.117187c0-14.21875-11.582031-25.785157-25.8125-25.785157-14.222656 0-25.789062 11.566407-25.789062 25.785157v16.117187c.003906 14.21875 11.570312 25.785156 25.789062 25.785156zm-10.644531-41.902343c0-5.867188 4.773437-10.644531 10.644531-10.644531 5.882812 0 10.671875 4.777343 10.671875 10.644531v16.117187c0 5.867188-4.789063 10.640625-10.671875 10.640625-5.871094 0-10.644531-4.773437-10.644531-10.640625zm0 0"/><path d="m242.550781 344.722656v58.4375c0 14.21875 11.566407 25.785156 25.785157 25.785156 14.234374 0 25.816406-11.566406 25.816406-25.785156v-58.4375c0-14.21875-11.582032-25.789062-25.816406-25.789062-14.21875 0-25.785157 11.570312-25.785157 25.789062zm15.140625 0c0-5.871094 4.773438-10.644531 10.644532-10.644531 5.882812 0 10.671874 4.773437 10.671874 10.644531v58.4375c0 5.867188-4.789062 10.640625-10.671874 10.640625-5.871094 0-10.644532-4.773437-10.644532-10.640625zm0 0"/><path d="m255.425781 215.519531c0-50.265625-40.898437-91.164062-91.167969-91.164062-50.257812 0-91.140624 40.898437-91.140624 91.164062s40.882812 91.164063 91.140624 91.164063c50.269532 0 91.167969-40.894532 91.167969-91.164063zm-91.167969 76.023438c-41.90625 0-76-34.105469-76-76.023438s34.09375-76.019531 76-76.019531c41.917969 0 76.023438 34.101562 76.023438 76.019531s-34.105469 76.023438-76.023438 76.023438zm0 0"/><path d="m193.996094 191.402344c-.003906 0-.003906 0-.007813-.003906l-12.523437-7.222657c-.046875-.027343-.097656-.058593-.144532-.082031l-16.148437-8.839844c-.078125-.042968-.15625-.082031-.238281-.125-9.238282-4.640625-18.664063-4.757812-25.855469-.320312-5.394531 3.324218-11.828125 10.574218-11.828125 26.207031v14.476563c0 .054687.003906.105468.003906.160156l.394532 18.386718c.003906.089844.007812.183594.011718.273438.597656 10.320312 5.210938 18.539062 12.660156 22.554688 2.671876 1.441406 6.242188 2.636718 10.722657 2.636718 4.882812 0 10.84375-1.421875 17.902343-5.503906l12.523438-7.222656c.046875-.027344.097656-.058594.144531-.085938l15.722657-9.546875c.078124-.046875.15625-.097656.230468-.148437 8.632813-5.679688 13.445313-13.785156 13.199219-22.234375-.183594-6.335938-3.238281-15.535157-16.769531-23.359375zm-4.644532 32.878906-15.523437 9.425781-12.453125 7.183594c-5.847656 3.378906-10.769531 4.324219-13.871094 2.648437-2.652344-1.429687-4.410156-5.152343-4.71875-9.972656l-.390625-18.15625v-14.394531c0-6.746094 1.648438-11.476563 4.632813-13.320313 2.5625-1.578124 6.667968-1.234374 11 .910157l15.949218 8.730469 12.449219 7.179687c5.835938 3.378906 9.105469 7.171875 9.207031 10.6875.085938 3.011719-2.261718 6.398437-6.28125 9.078125zm0 0"/><path d="m263.71875 38.570312h.59375c4.183594 0 7.570312-3.390624 7.570312-7.574218 0-4.179688-3.386718-7.570313-7.570312-7.570313h-.59375c-4.179688 0-7.570312 3.390625-7.570312 7.570313 0 4.183594 3.386718 7.574218 7.570312 7.574218zm0 0"/><path d="m238.957031 38.570312h.597657c4.179687 0 7.570312-3.390624 7.570312-7.574218 0-4.179688-3.390625-7.570313-7.570312-7.570313h-.597657c-4.179687 0-7.570312 3.390625-7.570312 7.570313 0 4.183594 3.390625 7.574218 7.570312 7.574218zm0 0"/></svg>